<svg width="24338" height="4578" viewBox="0 0 24338 4578" fill="none" xmlns="http://www.w3.org/2000/svg">
<path d="M9502 1376.45V1375.22C9511.04 1369.06 9518.84 1358.18 9525.41 1342.57C9531.98 1326.97 9535.27 1307.46 9535.27 1284.06V1040.75C9535.27 991.886 9526.23 961.499 9508.16 949.59V948.358H9888.88V949.59C9870.4 961.499 9861.16 991.886 9861.16 1040.75V1284.06C9861.16 1307.46 9864.44 1326.97 9871.01 1342.57C9877.59 1358.18 9885.18 1369.06 9893.81 1375.22V1376.45H9742.88V1375.22C9751.91 1369.06 9759.71 1358.18 9766.29 1342.57C9773.27 1326.97 9776.76 1307.46 9776.76 1284.06V1009.95H9619.67V1284.06C9619.67 1307.87 9622.95 1327.58 9629.52 1343.19C9636.09 1358.38 9643.9 1369.06 9652.93 1375.22V1376.45H9502Z" fill="white"/>
<path d="M9930.1 1376.45V1375.22C9939.95 1366.59 9950.63 1353.45 9962.13 1335.8C9973.63 1317.73 9983.08 1297.61 9990.47 1275.43L10070.6 1032.13C10076.3 1013.24 10078.2 996.814 10076.1 982.852C10074 968.48 10068.7 957.393 10060.1 949.59V948.358H10228.3V949.59C10220.1 956.571 10215.1 967.043 10213.5 981.004C10211.8 994.966 10214.1 1011.19 10220.3 1029.66L10301.6 1275.43C10309 1297.61 10318.4 1317.73 10329.9 1335.8C10341.4 1353.45 10352.1 1366.59 10361.9 1375.22V1376.45H10219.6V1375.22C10231.1 1364.54 10230.7 1339.29 10218.4 1299.45L10175.9 1161.48C10159.5 1107.28 10148.8 1064.77 10143.9 1033.98H10141.4C10137.7 1061.9 10127.2 1104.4 10110 1161.48L10067.5 1299.45C10061.3 1321.63 10058.2 1338.88 10058.2 1351.19C10058.6 1363.1 10061.3 1371.11 10066.2 1375.22V1376.45H9930.1Z" fill="white"/>
<path d="M10708.2 1258.19L10709.5 1258.8L10692.2 1381.38C10672.1 1378.09 10647 1376.45 10617 1376.45H10399.6V1375.22C10408.6 1369.06 10416.4 1358.18 10423 1342.57C10429.6 1326.97 10432.8 1307.46 10432.8 1284.06V1040.75C10432.8 1016.94 10429.6 997.43 10423 982.236C10416.4 966.632 10408.6 955.75 10399.6 949.59V948.358H10620.7C10649.9 948.358 10671.7 946.716 10686 943.431L10696.5 1053.69L10695.3 1054.3C10680.5 1023.92 10648.3 1008.72 10598.6 1008.72H10517.2V1117.13H10564.1C10606.8 1117.13 10638.8 1115.69 10660.2 1112.82L10642.3 1216.3H10641.1C10631.2 1190.43 10608.8 1177.49 10573.9 1177.49H10517.2V1316.09H10584.4C10639.8 1316.09 10681.1 1296.79 10708.2 1258.19Z" fill="white"/>
<path d="M11081.9 1279.13C11108.2 1317.32 11136.3 1346.27 11166.3 1365.98V1367.21L11037.6 1390C11037.6 1375.22 11024.6 1347.91 10998.8 1308.08L10935.9 1210.76L10868.2 1321.01C10859.9 1335.8 10855.8 1347.7 10855.8 1356.74C10855.8 1365.36 10858.7 1371.52 10864.5 1375.22V1376.45H10719.1V1375.22C10742.5 1364.54 10767.9 1338.05 10795.5 1295.76L10890.9 1148.54L10793.6 1003.18C10777.6 979.362 10759.1 961.499 10738.2 949.59V948.358H10881.7V949.59C10878.8 964.784 10884.4 984.289 10898.3 1008.11L10945.2 1086.33L10988.9 1011.19C10993.4 1003.38 10996.7 997.224 10998.8 992.707C11001.2 988.19 11003.3 983.263 11004.9 977.924C11006.6 972.586 11007.2 967.659 11006.8 963.141C11006.4 958.624 11004.9 954.107 11002.5 949.59V948.358H11138V949.59C11116.2 958.214 11092.6 983.057 11067.1 1024.12L10991.4 1148.54L11081.9 1279.13Z" fill="white"/>
<path d="M11563 1275.43C11570.8 1297.61 11580.5 1317.93 11592 1336.41C11603.5 1354.48 11613.9 1367.41 11623.4 1375.22V1376.45H11484.2V1375.22C11489.9 1370.7 11493 1362.49 11493.4 1350.58C11494.2 1338.26 11491.1 1321.22 11484.2 1299.45L11478.6 1284.67H11319.7L11314.1 1299.45C11307.1 1321.63 11303.9 1338.67 11304.3 1350.58C11304.7 1362.08 11307.5 1370.29 11312.9 1375.22V1376.45H11183.5V1375.22C11207.3 1353.86 11227.3 1320.6 11243.3 1275.43L11331.4 1021.66C11336.3 1002.36 11337.3 986.959 11334.5 975.461C11332 963.963 11327.3 955.339 11320.3 949.59V948.358H11483.5V949.59C11476.6 956.161 11471.6 964.989 11468.7 976.077C11465.9 987.164 11467.1 1002.36 11472.4 1021.66L11563 1275.43ZM11397.3 1030.28C11393.6 1061.49 11382.1 1104.4 11362.8 1159.02L11340 1224.31H11458.3L11435.5 1159.02C11415.4 1102.35 11403.4 1059.44 11399.8 1030.28H11397.3Z" fill="white"/>
<path d="M12060 949.59C12051 955.75 12043.2 966.632 12036.6 982.236C12030 997.84 12026.8 1017.35 12026.8 1040.75V1286.52C12026.8 1309.1 12030 1328.2 12036.6 1343.8C12043.2 1359 12051 1369.47 12060 1375.22V1376.45H11910.9V1375.22C11919.2 1369.06 11926.3 1358.38 11932.5 1343.19C11939.1 1327.58 11942.4 1308.69 11942.4 1286.52V1178.73H11778.5V1284.06C11778.5 1307.46 11781.6 1326.97 11787.7 1342.57C11793.9 1358.18 11801.3 1369.06 11809.9 1375.22V1376.45H11660.8V1375.22C11669.9 1369.06 11677.7 1358.18 11684.2 1342.57C11690.8 1326.97 11694.1 1307.46 11694.1 1284.06V1040.75C11694.1 1016.94 11690.8 997.43 11684.2 982.236C11677.7 966.632 11669.9 955.75 11660.8 949.59V948.358H11809.9V949.59C11801.7 955.75 11794.3 966.837 11787.7 982.852C11781.6 998.456 11778.5 1017.76 11778.5 1040.75V1117.13H11942.4V1040.75C11942.4 1017.35 11939.3 997.84 11933.1 982.236C11927 966.632 11919.6 955.75 11910.9 949.59V948.358H12060V949.59Z" fill="white"/>
<path d="M12354.9 1388.77C12287.5 1388.77 12234.1 1368.03 12194.7 1326.56C12155.3 1284.67 12135.6 1231.29 12135.6 1166.41C12135.6 1096.6 12155.9 1040.75 12196.6 998.867C12237.6 956.982 12293.5 936.039 12364.1 936.039C12429.8 936.039 12482.8 956.571 12523.1 997.635C12563.7 1038.29 12584 1091.67 12584 1157.78C12584 1226.77 12562.9 1282.62 12520.6 1325.32C12478.7 1367.62 12423.5 1388.77 12354.9 1388.77ZM12361 1324.71C12399.6 1324.71 12431.1 1310.13 12455.3 1280.98C12479.9 1251.41 12492.3 1212.4 12492.3 1163.94C12492.3 1112.2 12480.3 1071.96 12456.5 1043.22C12432.7 1014.47 12399.9 1000.1 12358 1000.1C12317.7 1000.1 12285.9 1014.68 12262.5 1043.83C12239.1 1072.99 12227.4 1111.79 12227.4 1160.25C12227.4 1211.58 12238.9 1251.82 12261.9 1280.98C12284.9 1310.13 12317.9 1324.71 12361 1324.71Z" fill="white"/>
<path d="M12897.3 1148.54C12922.7 1151.83 12944.5 1163.33 12962.6 1183.04C12981 1202.75 12990.3 1225.13 12990.3 1250.18C12990.3 1289.6 12976.9 1320.6 12950.2 1343.19C12923.5 1365.36 12888.8 1376.45 12846.1 1376.45H12658.8V1375.22C12683.1 1356.74 12695.2 1325.12 12695.2 1280.36V1043.83C12695.2 997.84 12683.1 966.427 12658.8 949.59V948.358H12828.9C12921.7 948.358 12968.1 984.289 12968.1 1056.15C12968.1 1078.74 12960.9 1098.86 12946.5 1116.51C12932.2 1133.76 12915.7 1143.82 12897.3 1146.7V1148.54ZM12823.9 1008.72H12779.6V1119.59H12823.9C12842 1119.59 12856 1114.67 12865.8 1104.81C12876.1 1094.55 12881.2 1079.76 12881.2 1060.46C12881.2 1025.97 12862.1 1008.72 12823.9 1008.72ZM12833.8 1316.09C12856.4 1316.09 12873.4 1309.93 12884.9 1297.61C12896.4 1284.88 12902.2 1268.04 12902.2 1247.1C12902.2 1226.16 12896.4 1209.73 12884.9 1197.82C12873.4 1185.5 12856.4 1179.34 12833.8 1179.34H12779.6V1316.09H12833.8Z" fill="white"/>
<path d="M13275.3 1385.69C13210 1385.69 13157.4 1364.95 13117.6 1323.48C13078.1 1282 13058.4 1229.24 13058.4 1165.18C13058.4 1096.19 13079.4 1041.37 13121.2 1000.71C13163.1 960.062 13219.4 939.735 13290 939.735C13327.4 939.735 13363.6 944.868 13398.5 955.134L13408.3 1061.69L13407.1 1062.31C13394.8 1043.42 13378.1 1029.05 13357.2 1019.19C13336.7 1009.34 13314.1 1004.41 13289.4 1004.41C13246.3 1004.41 13212.2 1018.37 13187.2 1046.3C13162.5 1073.81 13150.2 1111.38 13150.2 1159.02C13150.2 1207.47 13161.5 1246.48 13184.1 1276.05C13207.1 1305.61 13239.5 1320.4 13281.4 1320.4C13313 1320.4 13339.7 1314.65 13361.5 1303.15C13383.3 1291.24 13402.8 1273.99 13420 1251.41L13421.3 1252.03L13406.5 1362.28C13362.1 1377.89 13318.4 1385.69 13275.3 1385.69Z" fill="white"/>
<path d="M13602.5 1284.67C13602.5 1308.08 13605.4 1327.58 13611.1 1343.19C13617.3 1358.38 13624.5 1369.06 13632.7 1375.22V1376.45H13484.9V1375.22C13493.9 1369.06 13501.7 1358.18 13508.3 1342.57C13514.8 1326.97 13518.1 1307.46 13518.1 1284.06V1038.29C13518.1 1015.7 13514.8 996.814 13508.3 981.62C13501.7 966.016 13493.9 955.339 13484.9 949.59V948.358H13632.7V949.59C13624.5 955.75 13617.3 966.632 13611.1 982.236C13605.4 997.84 13602.5 1017.35 13602.5 1040.75V1284.67ZM13819.4 1306.85C13830.1 1322.45 13840.3 1334.77 13850.2 1343.8C13860.4 1352.43 13873 1359.82 13887.8 1365.98V1367.21L13763.9 1388.15C13759.8 1372.96 13749.8 1353.45 13733.7 1329.64L13609.3 1144.85L13713.4 997.635C13727.8 977.103 13734.6 960.678 13733.7 948.358H13861.9V949.59C13838.5 960.678 13814.2 983.468 13789.2 1017.96L13702.3 1135.61L13819.4 1306.85Z" fill="white"/>
<path d="M13917.7 1376.45V1375.22C13926 1369.06 13933.2 1358.18 13939.3 1342.57C13945.9 1326.56 13949.2 1307.05 13949.2 1284.06V1040.75C13949.2 1016.94 13945.9 997.43 13939.3 982.236C13932.7 966.632 13924.9 955.75 13915.9 949.59V948.358H14066.2V949.59C14058 955.75 14050.6 966.837 14044 982.852C14037.5 998.456 14034.2 1017.76 14034.2 1040.75V1149.16C14034.2 1185.3 14029.7 1228.41 14020.6 1278.51H14023.1C14036.6 1239.91 14056.6 1198.64 14082.9 1154.7L14171.6 1007.49C14187.2 981.62 14195.6 961.91 14196.8 948.358H14333V949.59C14325.2 953.697 14317.2 964.784 14308.9 982.852C14300.7 1000.92 14296.6 1019.19 14296.6 1037.67V1284.06C14296.6 1307.87 14299.9 1327.58 14306.5 1343.19C14313 1358.38 14320.9 1369.06 14329.9 1375.22V1376.45H14178.3V1375.22C14187.4 1369.06 14195.2 1358.18 14201.7 1342.57C14208.3 1326.97 14211.6 1307.46 14211.6 1284.06V1173.18C14211.6 1132.12 14217.4 1086.54 14228.9 1036.44H14226.4C14210 1083.25 14189.2 1126.99 14164.2 1167.64L14071.1 1317.93C14058 1339.29 14047.7 1358.79 14040.3 1376.45H13917.7Z" fill="white"/>
<path d="M14626.8 919.409C14597.2 919.409 14572.8 911.606 14553.5 896.002C14534.6 879.987 14522.7 858.634 14517.7 831.943L14580.6 811L14581.2 812.232C14577.9 824.962 14580.4 837.281 14588.6 849.189C14596.8 861.098 14609.5 867.052 14626.8 867.052C14644.4 867.052 14657.4 861.303 14665.6 849.805C14674.2 837.897 14676.9 825.372 14673.6 812.232L14674.2 811L14735.8 831.327C14729.2 858.429 14716.5 879.987 14697.6 896.002C14678.7 911.606 14655.1 919.409 14626.8 919.409ZM14419.8 1376.45V1375.22C14428 1369.06 14435.2 1358.18 14441.3 1342.57C14447.9 1326.56 14451.2 1307.05 14451.2 1284.06V1040.75C14451.2 1016.94 14447.9 997.43 14441.3 982.236C14434.8 966.632 14427 955.75 14417.9 949.59V948.358H14568.3V949.59C14560 955.75 14552.6 966.837 14546.1 982.852C14539.5 998.456 14536.2 1017.76 14536.2 1040.75V1149.16C14536.2 1185.3 14531.7 1228.41 14522.7 1278.51H14525.1C14538.7 1239.91 14558.6 1198.64 14584.9 1154.7L14673.6 1007.49C14689.2 981.62 14697.6 961.91 14698.9 948.358H14835V949.59C14827.2 953.697 14819.2 964.784 14811 982.852C14802.8 1000.92 14798.7 1019.19 14798.7 1037.67V1284.06C14798.7 1307.87 14801.9 1327.58 14808.5 1343.19C14815.1 1358.38 14822.9 1369.06 14831.9 1375.22V1376.45H14680.4V1375.22C14689.4 1369.06 14697.2 1358.18 14703.8 1342.57C14710.4 1326.97 14713.6 1307.46 14713.6 1284.06V1173.18C14713.6 1132.12 14719.4 1086.54 14730.9 1036.44H14728.4C14712 1083.25 14691.3 1126.99 14666.2 1167.64L14573.2 1317.93C14560 1339.29 14549.8 1358.79 14542.4 1376.45H14419.8Z" fill="white"/>
<path d="M11888.1 2833.5L11889.1 2834L11873.1 2925C11856.8 2923 11831.9 2922 11798.6 2922H11647.1V2920.5L11740.1 2802C11762.4 2773.67 11777.8 2752 11786.1 2737C11794.8 2721.67 11799.3 2707 11799.6 2693C11799.9 2674.67 11794.8 2660.83 11784.1 2651.5C11773.8 2641.83 11760.6 2637 11744.6 2637C11712.6 2637 11686.9 2650.5 11667.6 2677.5L11666.6 2677L11681.1 2600.5C11707.4 2589.83 11734.9 2584.5 11763.6 2584.5C11795.3 2584.5 11820.8 2593.67 11840.1 2612C11859.4 2630.33 11869.1 2654.17 11869.1 2683.5C11869.1 2703.5 11864.4 2722.5 11855.1 2740.5C11846.1 2758.17 11827.6 2782.67 11799.6 2814L11753.1 2866.5H11818.1C11832.8 2866.5 11845.3 2864.17 11855.6 2859.5C11866.3 2854.5 11877.1 2845.83 11888.1 2833.5Z" fill="white"/>
<path d="M12084.3 2931.5C12038.7 2931.5 12003.7 2916.33 11979.3 2886C11955 2855.33 11942.8 2812.5 11942.8 2757.5C11942.8 2701.83 11955.7 2658.83 11981.3 2628.5C12007 2597.83 12042.8 2582.5 12088.8 2582.5C12134.8 2582.5 12170.2 2596.83 12194.8 2625.5C12219.5 2653.83 12231.8 2695.83 12231.8 2751.5C12231.8 2808.83 12218.8 2853.17 12192.8 2884.5C12166.8 2915.83 12130.7 2931.5 12084.3 2931.5ZM12087.8 2882C12110.5 2882 12128.2 2871.17 12140.8 2849.5C12153.5 2827.5 12159.8 2796.17 12159.8 2755.5C12159.8 2672.83 12135 2631.5 12085.3 2631.5C12063 2631.5 12045.7 2642.17 12033.3 2663.5C12021 2684.5 12014.8 2714.5 12014.8 2753.5C12014.8 2839.17 12039.2 2882 12087.8 2882Z" fill="white"/>
<path d="M12500.4 2833.5L12501.4 2834L12485.4 2925C12469.1 2923 12444.2 2922 12410.9 2922H12259.4V2920.5L12352.4 2802C12374.7 2773.67 12390.1 2752 12398.4 2737C12407.1 2721.67 12411.6 2707 12411.9 2693C12412.2 2674.67 12407.1 2660.83 12396.4 2651.5C12386.1 2641.83 12372.9 2637 12356.9 2637C12324.9 2637 12299.2 2650.5 12279.9 2677.5L12278.9 2677L12293.4 2600.5C12319.7 2589.83 12347.2 2584.5 12375.9 2584.5C12407.6 2584.5 12433.1 2593.67 12452.4 2612C12471.7 2630.33 12481.4 2654.17 12481.4 2683.5C12481.4 2703.5 12476.7 2722.5 12467.4 2740.5C12458.4 2758.17 12439.9 2782.67 12411.9 2814L12365.4 2866.5H12430.4C12445.1 2866.5 12457.6 2864.17 12467.9 2859.5C12478.6 2854.5 12489.4 2845.83 12500.4 2833.5Z" fill="white"/>
<path d="M12793.1 2847.5C12779.1 2845.83 12765.1 2844.83 12751.1 2844.5V2847.5C12751.1 2866.17 12753.6 2881.83 12758.6 2894.5C12763.9 2907.17 12769.9 2916 12776.6 2921V2922H12666.6V2921C12673.2 2916 12679.1 2907.17 12684.1 2894.5C12689.4 2881.5 12692.1 2865.67 12692.1 2847V2844.5H12532.6V2843.5L12595.6 2648C12602.6 2626.67 12605.2 2608.17 12603.6 2592.5H12697.6V2593.5C12688.9 2601.17 12681.1 2611.33 12674.1 2624C12667.4 2636.67 12659.6 2655 12650.6 2679L12608.6 2795L12692.1 2795.5V2742C12692.1 2714.33 12688.9 2696 12682.6 2687L12683.1 2686L12763.6 2666L12764.1 2667C12755.4 2676.33 12751.1 2694.83 12751.1 2722.5V2795.5C12774.1 2794.5 12791.4 2786.5 12803.1 2771.5L12804.1 2772L12793.1 2847.5Z" fill="white"/>
<path d="M2803.82 1819L2803.52 1818.4C2814.32 1806.6 2820.32 1792.1 2821.52 1774.9L2829.32 1658.5C2829.92 1649.1 2828.92 1639.8 2826.32 1630.6C2823.72 1621.4 2819.32 1614.9 2813.12 1611.1L2813.42 1610.5H2882.12C2877.92 1615.9 2879.52 1625 2886.92 1637.8L2916.62 1688.8C2926.62 1706 2932.82 1722.5 2935.22 1738.3H2936.42C2939.42 1725.9 2946.82 1709.4 2958.62 1688.8L2988.02 1636.9C2995.02 1624.5 2996.52 1615.7 2992.52 1610.5H3061.82L3062.12 1611.1C3055.92 1614.5 3051.32 1621 3048.32 1630.6C3045.32 1640 3044.12 1649.3 3044.72 1658.5L3054.02 1774.9C3055.62 1793.7 3061.52 1808.2 3071.72 1818.4L3071.42 1819H3002.72L3002.42 1818.4C3005.62 1815.6 3008.22 1810.9 3010.22 1804.3C3012.22 1797.7 3012.92 1790 3012.32 1781.2L3007.52 1719.1C3006.32 1704.5 3006.92 1687.3 3009.32 1667.5H3008.12C3002.92 1684.3 2995.22 1701.3 2985.02 1718.5L2951.72 1774.9C2943.32 1788.9 2938.62 1801 2937.62 1811.2H2935.22C2933.82 1800.8 2928.82 1788.8 2920.22 1775.2L2884.52 1718.2C2875.12 1703 2867.92 1686.1 2862.92 1667.5H2861.72C2863.72 1685.7 2864.32 1702.9 2863.52 1719.1L2860.22 1781.2C2859.42 1799.4 2862.72 1811.8 2870.12 1818.4L2869.82 1819H2803.82Z" fill="white"/>
<path d="M3255.33 1761.4L3255.93 1761.7L3247.53 1821.4C3237.73 1819.8 3225.53 1819 3210.93 1819H3105.03V1818.4C3109.43 1815.4 3113.23 1810.1 3116.43 1802.5C3119.63 1794.9 3121.23 1785.4 3121.23 1774V1655.5C3121.23 1643.9 3119.63 1634.4 3116.43 1627C3113.23 1619.4 3109.43 1614.1 3105.03 1611.1V1610.5H3212.73C3226.93 1610.5 3237.53 1609.7 3244.53 1608.1L3249.63 1661.8L3249.03 1662.1C3241.83 1647.3 3226.13 1639.9 3201.93 1639.9H3162.33V1692.7H3185.13C3205.93 1692.7 3221.53 1692 3231.93 1690.6L3223.23 1741H3222.63C3217.83 1728.4 3206.93 1722.1 3189.93 1722.1H3162.33V1789.6H3195.03C3222.03 1789.6 3242.13 1780.2 3255.33 1761.4Z" fill="white"/>
<path d="M3462.21 1611.1C3457.81 1614.1 3454.01 1619.4 3450.81 1627C3447.61 1634.6 3446.01 1644.1 3446.01 1655.5V1774C3446.01 1785.6 3447.61 1795.2 3450.81 1802.8C3454.01 1810.2 3457.81 1815.4 3462.21 1818.4V1819H3388.71V1818.4C3393.11 1815.4 3396.91 1810.1 3400.11 1802.5C3403.31 1794.9 3404.91 1785.4 3404.91 1774V1743.1C3395.91 1744.7 3386.11 1745.5 3375.51 1745.5C3347.11 1745.5 3326.81 1738.9 3314.61 1725.7C3302.61 1712.3 3296.61 1692.8 3296.61 1667.2V1655.5C3296.61 1644.1 3295.01 1634.6 3291.81 1627C3288.81 1619.4 3285.11 1614.1 3280.71 1611.1V1610.5H3351.51V1611.1C3342.31 1617.7 3337.71 1632.5 3337.71 1655.5V1671.7C3337.71 1700.7 3354.21 1715.2 3387.21 1715.2C3393.61 1715.2 3399.51 1714.7 3404.91 1713.7V1655.5C3404.91 1631.9 3400.31 1617.1 3391.11 1611.1V1610.5H3462.21V1611.1Z" fill="white"/>
<path d="M3652.54 1608.1L3657.64 1663L3657.04 1663.3C3653.44 1656.9 3648.14 1651.6 3641.14 1647.4C3634.34 1643.2 3626.64 1641.1 3618.04 1641.1H3595.54V1771.6C3595.54 1783.8 3597.24 1794 3600.64 1802.2C3604.24 1810.2 3608.64 1815.6 3613.84 1818.4V1819H3536.14V1818.4C3540.94 1815.6 3545.14 1810.1 3548.74 1801.9C3552.54 1793.5 3554.44 1783.4 3554.44 1771.6V1641.1H3531.64C3523.04 1641.1 3515.24 1643.2 3508.24 1647.4C3501.44 1651.6 3496.24 1656.9 3492.64 1663.3L3492.04 1663L3497.14 1608.1C3509.34 1609.7 3523.04 1610.5 3538.24 1610.5H3611.44C3626.64 1610.5 3640.34 1609.7 3652.54 1608.1Z" fill="white"/>
<path d="M3836.66 1769.8C3840.46 1780.6 3845.16 1790.5 3850.76 1799.5C3856.36 1808.3 3861.46 1814.6 3866.06 1818.4V1819H3798.26V1818.4C3801.06 1816.2 3802.56 1812.2 3802.76 1806.4C3803.16 1800.4 3801.66 1792.1 3798.26 1781.5L3795.56 1774.3H3718.16L3715.46 1781.5C3712.06 1792.3 3710.46 1800.6 3710.66 1806.4C3710.86 1812 3712.26 1816 3714.86 1818.4V1819H3651.86V1818.4C3663.46 1808 3673.16 1791.8 3680.96 1769.8L3723.86 1646.2C3726.26 1636.8 3726.76 1629.3 3725.36 1623.7C3724.16 1618.1 3721.86 1613.9 3718.46 1611.1V1610.5H3797.96V1611.1C3794.56 1614.3 3792.16 1618.6 3790.76 1624C3789.36 1629.4 3789.96 1636.8 3792.56 1646.2L3836.66 1769.8ZM3755.96 1650.4C3754.16 1665.6 3748.56 1686.5 3739.16 1713.1L3728.06 1744.9H3785.66L3774.56 1713.1C3764.76 1685.5 3758.96 1664.6 3757.16 1650.4H3755.96Z" fill="white"/>
<path d="M3986 1596.4C3971.6 1596.4 3959.7 1592.6 3950.3 1585C3941.1 1577.2 3935.3 1566.8 3932.9 1553.8L3963.5 1543.6L3963.8 1544.2C3962.2 1550.4 3963.4 1556.4 3967.4 1562.2C3971.4 1568 3977.6 1570.9 3986 1570.9C3994.6 1570.9 4000.9 1568.1 4004.9 1562.5C4009.1 1556.7 4010.4 1550.6 4008.8 1544.2L4009.1 1543.6L4039.1 1553.5C4035.9 1566.7 4029.7 1577.2 4020.5 1585C4011.3 1592.6 3999.8 1596.4 3986 1596.4ZM3885.2 1819V1818.4C3889.2 1815.4 3892.7 1810.1 3895.7 1802.5C3898.9 1794.7 3900.5 1785.2 3900.5 1774V1655.5C3900.5 1643.9 3898.9 1634.4 3895.7 1627C3892.5 1619.4 3888.7 1614.1 3884.3 1611.1V1610.5H3957.5V1611.1C3953.5 1614.1 3949.9 1619.5 3946.7 1627.3C3943.5 1634.9 3941.9 1644.3 3941.9 1655.5V1708.3C3941.9 1725.9 3939.7 1746.9 3935.3 1771.3H3936.5C3943.1 1752.5 3952.8 1732.4 3965.6 1711L4008.8 1639.3C4016.4 1626.7 4020.5 1617.1 4021.1 1610.5H4087.4V1611.1C4083.6 1613.1 4079.7 1618.5 4075.7 1627.3C4071.7 1636.1 4069.7 1645 4069.7 1654V1774C4069.7 1785.6 4071.3 1795.2 4074.5 1802.8C4077.7 1810.2 4081.5 1815.4 4085.9 1818.4V1819H4012.1V1818.4C4016.5 1815.4 4020.3 1810.1 4023.5 1802.5C4026.7 1794.9 4028.3 1785.4 4028.3 1774V1720C4028.3 1700 4031.1 1677.8 4036.7 1653.4H4035.5C4027.5 1676.2 4017.4 1697.5 4005.2 1717.3L3959.9 1790.5C3953.5 1800.9 3948.5 1810.4 3944.9 1819H3885.2Z" fill="white"/>
<path d="M7938.08 3678.5C7906.28 3678.5 7880.68 3668.4 7861.28 3648.2C7842.08 3628 7832.48 3602.3 7832.48 3571.1C7832.48 3537.5 7842.68 3510.8 7863.08 3491C7883.48 3471.2 7910.88 3461.3 7945.28 3461.3C7963.48 3461.3 7981.08 3463.8 7998.08 3468.8L8002.88 3520.7L8002.28 3521C7996.28 3511.8 7988.18 3504.8 7977.98 3500C7967.98 3495.2 7956.98 3492.8 7944.98 3492.8C7923.98 3492.8 7907.38 3499.6 7895.18 3513.2C7883.18 3526.6 7877.18 3544.9 7877.18 3568.1C7877.18 3591.7 7882.68 3610.7 7893.68 3625.1C7904.88 3639.5 7920.68 3646.7 7941.08 3646.7C7956.48 3646.7 7969.48 3643.9 7980.08 3638.3C7990.68 3632.5 8000.18 3624.1 8008.58 3613.1L8009.18 3613.4L8001.98 3667.1C7980.38 3674.7 7959.08 3678.5 7938.08 3678.5Z" fill="white"/>
<path d="M8139.22 3680C8106.42 3680 8080.42 3669.9 8061.22 3649.7C8042.02 3629.3 8032.42 3603.3 8032.42 3571.7C8032.42 3537.7 8042.32 3510.5 8062.12 3490.1C8082.12 3469.7 8109.32 3459.5 8143.72 3459.5C8175.72 3459.5 8201.52 3469.5 8221.12 3489.5C8240.92 3509.3 8250.82 3535.3 8250.82 3567.5C8250.82 3601.1 8240.52 3628.3 8219.92 3649.1C8199.52 3669.7 8172.62 3680 8139.22 3680ZM8142.22 3648.8C8161.02 3648.8 8176.32 3641.7 8188.12 3627.5C8200.12 3613.1 8206.12 3594.1 8206.12 3570.5C8206.12 3545.3 8200.32 3525.7 8188.72 3511.7C8177.12 3497.7 8161.12 3490.7 8140.72 3490.7C8121.12 3490.7 8105.62 3497.8 8094.22 3512C8082.82 3526.2 8077.12 3545.1 8077.12 3568.7C8077.12 3593.7 8082.72 3613.3 8093.92 3627.5C8105.12 3641.7 8121.22 3648.8 8142.22 3648.8Z" fill="white"/>
<path d="M8333.84 3678.8C8311.44 3678.8 8294.04 3675.3 8281.64 3668.3L8277.44 3621.5L8278.04 3621.2C8288.64 3639 8306.94 3647.9 8332.94 3647.9C8345.34 3647.9 8354.84 3644.8 8361.44 3638.6C8368.24 3632.2 8371.64 3623.4 8371.64 3612.2C8371.64 3601.4 8368.44 3592.7 8362.04 3586.1C8355.64 3579.5 8346.84 3576.2 8335.64 3576.2C8322.64 3576.2 8310.84 3578.9 8300.24 3584.3L8299.64 3584L8305.34 3545C8310.74 3545.8 8319.24 3546.2 8330.84 3546.2C8342.24 3546.2 8350.74 3543.5 8356.34 3538.1C8361.94 3532.7 8364.74 3525.6 8364.74 3516.8C8364.74 3509 8362.04 3502.9 8356.64 3498.5C8351.24 3493.9 8343.34 3491.6 8332.94 3491.6C8310.94 3491.6 8293.94 3499.4 8281.94 3515L8281.34 3514.7L8288.24 3469.7C8304.44 3463.7 8320.34 3460.7 8335.94 3460.7C8358.14 3460.7 8375.44 3465.4 8387.84 3474.8C8400.24 3484.2 8406.44 3497.2 8406.44 3513.8C8406.44 3534.4 8397.64 3549.8 8380.04 3560V3560.6C8390.24 3564.8 8398.44 3571.7 8404.64 3581.3C8411.04 3590.7 8414.24 3601.8 8414.24 3614.6C8414.24 3633.6 8407.24 3649.1 8393.24 3661.1C8379.44 3672.9 8359.64 3678.8 8333.84 3678.8Z" fill="white"/>
<path d="M8625.98 3644.3C8637.58 3643.9 8646.28 3643.5 8652.08 3643.1L8636.78 3704.6H8636.18C8634.18 3695.2 8629.28 3687.7 8621.48 3682.1C8613.68 3676.7 8604.18 3674 8592.98 3674H8487.08C8475.88 3674 8466.28 3676.8 8458.28 3682.4C8450.48 3688 8445.68 3695.4 8443.88 3704.6H8443.28L8427.98 3643.1C8434.18 3643.5 8443.28 3643.9 8455.28 3644.3L8502.08 3507.8C8508.88 3488 8507.88 3474.1 8499.08 3466.1V3465.5H8581.28V3466.1C8577.28 3469.7 8574.78 3474.7 8573.78 3481.1C8572.78 3487.5 8573.78 3495.3 8576.78 3504.5L8625.98 3644.3ZM8520.98 3569.3L8496.08 3644.3H8581.88L8556.38 3569.3C8546.98 3541.9 8541.38 3520.1 8539.58 3503.9H8538.38C8535.98 3519.3 8530.18 3541.1 8520.98 3569.3Z" fill="white"/>
<path d="M8844.73 3624.8C8848.53 3635.6 8853.23 3645.5 8858.83 3654.5C8864.43 3663.3 8869.53 3669.6 8874.13 3673.4V3674H8806.33V3673.4C8809.13 3671.2 8810.63 3667.2 8810.83 3661.4C8811.23 3655.4 8809.73 3647.1 8806.33 3636.5L8803.63 3629.3H8726.23L8723.53 3636.5C8720.13 3647.3 8718.53 3655.6 8718.73 3661.4C8718.93 3667 8720.33 3671 8722.93 3673.4V3674H8659.93V3673.4C8671.53 3663 8681.23 3646.8 8689.03 3624.8L8731.93 3501.2C8734.33 3491.8 8734.83 3484.3 8733.43 3478.7C8732.23 3473.1 8729.93 3468.9 8726.53 3466.1V3465.5H8806.03V3466.1C8802.63 3469.3 8800.23 3473.6 8798.83 3479C8797.43 3484.4 8798.03 3491.8 8800.63 3501.2L8844.73 3624.8ZM8764.03 3505.4C8762.23 3520.6 8756.63 3541.5 8747.23 3568.1L8736.13 3599.9H8793.73L8782.63 3568.1C8772.83 3540.5 8767.03 3519.6 8765.23 3505.4H8764.03Z" fill="white"/>
<path d="M9007.87 3563C9020.27 3564.6 9030.87 3570.2 9039.67 3579.8C9048.67 3589.4 9053.17 3600.3 9053.17 3612.5C9053.17 3631.7 9046.67 3646.8 9033.67 3657.8C9020.67 3668.6 9003.77 3674 8982.97 3674H8891.77V3673.4C8903.57 3664.4 8909.47 3649 8909.47 3627.2V3512C8909.47 3489.6 8903.57 3474.3 8891.77 3466.1V3465.5H8974.57C9019.77 3465.5 9042.37 3483 9042.37 3518C9042.37 3529 9038.87 3538.8 9031.87 3547.4C9024.87 3555.8 9016.87 3560.7 9007.87 3562.1V3563ZM8972.17 3494.9H8950.57V3548.9H8972.17C8980.97 3548.9 8987.77 3546.5 8992.57 3541.7C8997.57 3536.7 9000.07 3529.5 9000.07 3520.1C9000.07 3503.3 8990.77 3494.9 8972.17 3494.9ZM8976.97 3644.6C8987.97 3644.6 8996.27 3641.6 9001.87 3635.6C9007.47 3629.4 9010.27 3621.2 9010.27 3611C9010.27 3600.8 9007.47 3592.8 9001.87 3587C8996.27 3581 8987.97 3578 8976.97 3578H8950.57V3644.6H8976.97Z" fill="white"/>
<path d="M9249.31 3624.8C9253.11 3635.6 9257.81 3645.5 9263.41 3654.5C9269.01 3663.3 9274.11 3669.6 9278.71 3673.4V3674H9210.91V3673.4C9213.71 3671.2 9215.21 3667.2 9215.41 3661.4C9215.81 3655.4 9214.31 3647.1 9210.91 3636.5L9208.21 3629.3H9130.81L9128.11 3636.5C9124.71 3647.3 9123.11 3655.6 9123.31 3661.4C9123.51 3667 9124.91 3671 9127.51 3673.4V3674H9064.51V3673.4C9076.11 3663 9085.81 3646.8 9093.61 3624.8L9136.51 3501.2C9138.91 3491.8 9139.41 3484.3 9138.01 3478.7C9136.81 3473.1 9134.51 3468.9 9131.11 3466.1V3465.5H9210.61V3466.1C9207.21 3469.3 9204.81 3473.6 9203.41 3479C9202.01 3484.4 9202.61 3491.8 9205.21 3501.2L9249.31 3624.8ZM9168.61 3505.4C9166.81 3520.6 9161.21 3541.5 9151.81 3568.1L9140.71 3599.9H9198.31L9187.21 3568.1C9177.41 3540.5 9171.61 3519.6 9169.81 3505.4H9168.61Z" fill="white"/>
<path d="M9398.65 3451.4C9384.25 3451.4 9372.35 3447.6 9362.95 3440C9353.75 3432.2 9347.95 3421.8 9345.55 3408.8L9376.15 3398.6L9376.45 3399.2C9374.85 3405.4 9376.05 3411.4 9380.05 3417.2C9384.05 3423 9390.25 3425.9 9398.65 3425.9C9407.25 3425.9 9413.55 3423.1 9417.55 3417.5C9421.75 3411.7 9423.05 3405.6 9421.45 3399.2L9421.75 3398.6L9451.75 3408.5C9448.55 3421.7 9442.35 3432.2 9433.15 3440C9423.95 3447.6 9412.45 3451.4 9398.65 3451.4ZM9297.85 3674V3673.4C9301.85 3670.4 9305.35 3665.1 9308.35 3657.5C9311.55 3649.7 9313.15 3640.2 9313.15 3629V3510.5C9313.15 3498.9 9311.55 3489.4 9308.35 3482C9305.15 3474.4 9301.35 3469.1 9296.95 3466.1V3465.5H9370.15V3466.1C9366.15 3469.1 9362.55 3474.5 9359.35 3482.3C9356.15 3489.9 9354.55 3499.3 9354.55 3510.5V3563.3C9354.55 3580.9 9352.35 3601.9 9347.95 3626.3H9349.15C9355.75 3607.5 9365.45 3587.4 9378.25 3566L9421.45 3494.3C9429.05 3481.7 9433.15 3472.1 9433.75 3465.5H9500.05V3466.1C9496.25 3468.1 9492.35 3473.5 9488.35 3482.3C9484.35 3491.1 9482.35 3500 9482.35 3509V3629C9482.35 3640.6 9483.95 3650.2 9487.15 3657.8C9490.35 3665.2 9494.15 3670.4 9498.55 3673.4V3674H9424.75V3673.4C9429.15 3670.4 9432.95 3665.1 9436.15 3657.5C9439.35 3649.9 9440.95 3640.4 9440.95 3629V3575C9440.95 3555 9443.75 3532.8 9449.35 3508.4H9448.15C9440.15 3531.2 9430.05 3552.5 9417.85 3572.3L9372.55 3645.5C9366.15 3655.9 9361.15 3665.4 9357.55 3674H9297.85Z" fill="white"/>
<path d="M18504.9 2727.3C18516.5 2726.9 18525.2 2726.5 18531 2726.1L18515.7 2787.6H18515.1C18513.1 2778.2 18508.2 2770.7 18500.4 2765.1C18492.6 2759.7 18483.1 2757 18471.9 2757H18366C18354.8 2757 18345.2 2759.8 18337.2 2765.4C18329.4 2771 18324.6 2778.4 18322.8 2787.6H18322.2L18306.9 2726.1C18313.1 2726.5 18322.2 2726.9 18334.2 2727.3L18381 2590.8C18387.8 2571 18386.8 2557.1 18378 2549.1V2548.5H18460.2V2549.1C18456.2 2552.7 18453.7 2557.7 18452.7 2564.1C18451.7 2570.5 18452.7 2578.3 18455.7 2587.5L18504.9 2727.3ZM18399.9 2652.3L18375 2727.3H18460.8L18435.3 2652.3C18425.9 2624.9 18420.3 2603.1 18418.5 2586.9H18417.3C18414.9 2602.3 18409.1 2624.1 18399.9 2652.3Z" fill="white"/>
<path d="M18695.8 2699.4L18696.4 2699.7L18688 2759.4C18678.2 2757.8 18666 2757 18651.4 2757H18545.5V2756.4C18549.9 2753.4 18553.7 2748.1 18556.9 2740.5C18560.1 2732.9 18561.7 2723.4 18561.7 2712V2593.5C18561.7 2581.9 18560.1 2572.4 18556.9 2565C18553.7 2557.4 18549.9 2552.1 18545.5 2549.1V2548.5H18653.2C18667.4 2548.5 18678 2547.7 18685 2546.1L18690.1 2599.8L18689.5 2600.1C18682.3 2585.3 18666.6 2577.9 18642.4 2577.9H18602.8V2630.7H18625.6C18646.4 2630.7 18662 2630 18672.4 2628.6L18663.7 2679H18663.1C18658.3 2666.4 18647.4 2660.1 18630.4 2660.1H18602.8V2727.6H18635.5C18662.5 2727.6 18682.6 2718.2 18695.8 2699.4Z" fill="white"/>
<path d="M18833.1 2534.4C18818.7 2534.4 18806.8 2530.6 18797.4 2523C18788.2 2515.2 18782.4 2504.8 18780 2491.8L18810.6 2481.6L18810.9 2482.2C18809.3 2488.4 18810.5 2494.4 18814.5 2500.2C18818.5 2506 18824.7 2508.9 18833.1 2508.9C18841.7 2508.9 18848 2506.1 18852 2500.5C18856.2 2494.7 18857.5 2488.6 18855.9 2482.2L18856.2 2481.6L18886.2 2491.5C18883 2504.7 18876.8 2515.2 18867.6 2523C18858.4 2530.6 18846.9 2534.4 18833.1 2534.4ZM18732.3 2757V2756.4C18736.3 2753.4 18739.8 2748.1 18742.8 2740.5C18746 2732.7 18747.6 2723.2 18747.6 2712V2593.5C18747.6 2581.9 18746 2572.4 18742.8 2565C18739.6 2557.4 18735.8 2552.1 18731.4 2549.1V2548.5H18804.6V2549.1C18800.6 2552.1 18797 2557.5 18793.8 2565.3C18790.6 2572.9 18789 2582.3 18789 2593.5V2646.3C18789 2663.9 18786.8 2684.9 18782.4 2709.3H18783.6C18790.2 2690.5 18799.9 2670.4 18812.7 2649L18855.9 2577.3C18863.5 2564.7 18867.6 2555.1 18868.2 2548.5H18934.5V2549.1C18930.7 2551.1 18926.8 2556.5 18922.8 2565.3C18918.8 2574.1 18916.8 2583 18916.8 2592V2712C18916.8 2723.6 18918.4 2733.2 18921.6 2740.8C18924.8 2748.2 18928.6 2753.4 18933 2756.4V2757H18859.2V2756.4C18863.6 2753.4 18867.4 2748.1 18870.6 2740.5C18873.8 2732.9 18875.4 2723.4 18875.4 2712V2658C18875.4 2638 18878.2 2615.8 18883.8 2591.4H18882.6C18874.6 2614.2 18864.5 2635.5 18852.3 2655.3L18807 2728.5C18800.6 2738.9 18795.6 2748.4 18792 2757H18732.3Z" fill="white"/>
<path d="M19077 2761.5C19045.2 2761.5 19019.6 2751.4 19000.2 2731.2C18981 2711 18971.4 2685.3 18971.4 2654.1C18971.4 2620.5 18981.6 2593.8 19002 2574C19022.4 2554.2 19049.8 2544.3 19084.2 2544.3C19102.4 2544.3 19120 2546.8 19137 2551.8L19141.8 2603.7L19141.2 2604C19135.2 2594.8 19127.1 2587.8 19116.9 2583C19106.9 2578.2 19095.9 2575.8 19083.9 2575.8C19062.9 2575.8 19046.3 2582.6 19034.1 2596.2C19022.1 2609.6 19016.1 2627.9 19016.1 2651.1C19016.1 2674.7 19021.6 2693.7 19032.6 2708.1C19043.8 2722.5 19059.6 2729.7 19080 2729.7C19095.4 2729.7 19108.4 2726.9 19119 2721.3C19129.6 2715.5 19139.1 2707.1 19147.5 2696.1L19148.1 2696.4L19140.9 2750.1C19119.3 2757.7 19098 2761.5 19077 2761.5Z" fill="white"/>
<path d="M19327.9 2546.1L19333 2601L19332.4 2601.3C19328.8 2594.9 19323.5 2589.6 19316.5 2585.4C19309.7 2581.2 19302 2579.1 19293.4 2579.1H19270.9V2709.6C19270.9 2721.8 19272.6 2732 19276 2740.2C19279.6 2748.2 19284 2753.6 19289.2 2756.4V2757H19211.5V2756.4C19216.3 2753.6 19220.5 2748.1 19224.1 2739.9C19227.9 2731.5 19229.8 2721.4 19229.8 2709.6V2579.1H19207C19198.4 2579.1 19190.6 2581.2 19183.6 2585.4C19176.8 2589.6 19171.6 2594.9 19168 2601.3L19167.4 2601L19172.5 2546.1C19184.7 2547.7 19198.4 2548.5 19213.6 2548.5H19286.8C19302 2548.5 19315.7 2547.7 19327.9 2546.1Z" fill="white"/>
<path d="M19478.1 2646C19490.5 2647.6 19501.1 2653.2 19509.9 2662.8C19518.9 2672.4 19523.4 2683.3 19523.4 2695.5C19523.4 2714.7 19516.9 2729.8 19503.9 2740.8C19490.9 2751.6 19474 2757 19453.2 2757H19362V2756.4C19373.8 2747.4 19379.7 2732 19379.7 2710.2V2595C19379.7 2572.6 19373.8 2557.3 19362 2549.1V2548.5H19444.8C19490 2548.5 19512.6 2566 19512.6 2601C19512.6 2612 19509.1 2621.8 19502.1 2630.4C19495.1 2638.8 19487.1 2643.7 19478.1 2645.1V2646ZM19442.4 2577.9H19420.8V2631.9H19442.4C19451.2 2631.9 19458 2629.5 19462.8 2624.7C19467.8 2619.7 19470.3 2612.5 19470.3 2603.1C19470.3 2586.3 19461 2577.9 19442.4 2577.9ZM19447.2 2727.6C19458.2 2727.6 19466.5 2724.6 19472.1 2718.6C19477.7 2712.4 19480.5 2704.2 19480.5 2694C19480.5 2683.8 19477.7 2675.8 19472.1 2670C19466.5 2664 19458.2 2661 19447.2 2661H19420.8V2727.6H19447.2Z" fill="white"/>
<path d="M19666 2548.5H19731.7V2549.1C19718.3 2559.3 19708 2574.1 19700.8 2593.5L19658.5 2707.2C19653.9 2719.6 19651.6 2729.6 19651.6 2737.2C19651.6 2744.6 19654 2751 19658.8 2756.4V2757H19587.4V2756.4C19599.4 2744.4 19609.1 2728.6 19616.5 2709L19627.9 2679H19600L19560.7 2590.5C19551.3 2569.7 19542.1 2555.9 19533.1 2549.1V2548.5H19603.3V2549.1C19599.9 2555.3 19598.3 2561.5 19598.5 2567.7C19598.9 2573.9 19601 2581.5 19604.8 2590.5L19634.8 2660.7L19661.5 2590.5C19667.5 2574.7 19669 2560.7 19666 2548.5Z" fill="white"/>
<path d="M19858 2534.4C19843.6 2534.4 19831.7 2530.6 19822.3 2523C19813.1 2515.2 19807.3 2504.8 19804.9 2491.8L19835.5 2481.6L19835.8 2482.2C19834.2 2488.4 19835.4 2494.4 19839.4 2500.2C19843.4 2506 19849.6 2508.9 19858 2508.9C19866.6 2508.9 19872.9 2506.1 19876.9 2500.5C19881.1 2494.7 19882.4 2488.6 19880.8 2482.2L19881.1 2481.6L19911.1 2491.5C19907.9 2504.7 19901.7 2515.2 19892.5 2523C19883.3 2530.6 19871.8 2534.4 19858 2534.4ZM19757.2 2757V2756.4C19761.2 2753.4 19764.7 2748.1 19767.7 2740.5C19770.9 2732.7 19772.5 2723.2 19772.5 2712V2593.5C19772.5 2581.9 19770.9 2572.4 19767.7 2565C19764.5 2557.4 19760.7 2552.1 19756.3 2549.1V2548.5H19829.5V2549.1C19825.5 2552.1 19821.9 2557.5 19818.7 2565.3C19815.5 2572.9 19813.9 2582.3 19813.9 2593.5V2646.3C19813.9 2663.9 19811.7 2684.9 19807.3 2709.3H19808.5C19815.1 2690.5 19824.8 2670.4 19837.6 2649L19880.8 2577.3C19888.4 2564.7 19892.5 2555.1 19893.1 2548.5H19959.4V2549.1C19955.6 2551.1 19951.7 2556.5 19947.7 2565.3C19943.7 2574.1 19941.7 2583 19941.7 2592V2712C19941.7 2723.6 19943.3 2733.2 19946.5 2740.8C19949.7 2748.2 19953.5 2753.4 19957.9 2756.4V2757H19884.1V2756.4C19888.5 2753.4 19892.3 2748.1 19895.5 2740.5C19898.7 2732.9 19900.3 2723.4 19900.3 2712V2658C19900.3 2638 19903.1 2615.8 19908.7 2591.4H19907.5C19899.5 2614.2 19889.4 2635.5 19877.2 2655.3L19831.9 2728.5C19825.5 2738.9 19820.5 2748.4 19816.9 2757H19757.2Z" fill="white"/>
<path d="M9824.4 1961.08C9857.13 1965.3 9885.1 1980.09 9908.32 2005.43C9932.08 2030.78 9943.95 2059.56 9943.95 2091.77C9943.95 2142.47 9926.8 2182.34 9892.49 2211.38C9858.18 2239.9 9813.58 2254.16 9758.69 2254.16H9518V2252.57C9549.14 2228.81 9564.71 2188.15 9564.71 2130.59V1826.42C9564.71 1767.27 9549.14 1726.88 9518 1705.22V1703.64H9736.52C9855.81 1703.64 9915.45 1749.85 9915.45 1842.26C9915.45 1871.3 9906.21 1897.18 9887.74 1919.89C9869.27 1942.07 9848.15 1955 9824.4 1958.7V1961.08ZM9730.18 1781.27H9673.18V1923.85H9730.18C9753.41 1923.85 9771.35 1917.51 9784.02 1904.84C9797.22 1891.64 9803.82 1872.62 9803.82 1847.8C9803.82 1803.45 9779.27 1781.27 9730.18 1781.27ZM9742.85 2176.53C9771.88 2176.53 9793.79 2168.61 9808.57 2152.77C9823.34 2136.4 9830.73 2114.75 9830.73 2087.81C9830.73 2060.88 9823.34 2039.76 9808.57 2024.45C9793.79 2008.6 9771.88 2000.68 9742.85 2000.68H9673.18V2176.53H9742.85Z" fill="white"/>
<path d="M10269 1892.16C10328.2 1892.16 10375.7 1907.48 10411.6 1938.11C10448 1968.21 10466.2 2010.72 10466.2 2065.64C10466.2 2125.31 10448 2171.78 10411.6 2205.05C10375.7 2237.79 10330.5 2254.16 10276.2 2254.16H10043.4V2252.57C10055 2244.65 10065 2230.66 10073.5 2210.59C10081.9 2190.52 10086.1 2165.44 10086.1 2135.34V1819.29C10086.1 1790.24 10081.9 1765.95 10073.5 1746.41C10065 1726.35 10055 1712.62 10043.4 1705.22V1703.64H10237.4V1705.22C10225.8 1713.15 10215.7 1727.14 10207.3 1747.21C10198.8 1767.27 10194.6 1792.36 10194.6 1822.46V1892.16H10269ZM10691.8 1705.22C10680.2 1713.15 10670.2 1727.14 10661.7 1747.21C10653.3 1767.27 10649.1 1792.36 10649.1 1822.46V2135.34C10649.1 2165.97 10653.3 2191.32 10661.7 2211.38C10670.2 2230.92 10680.2 2244.65 10691.8 2252.57V2254.16H10497.1V2252.57C10508.7 2244.65 10518.7 2230.66 10527.1 2210.59C10535.6 2190.52 10539.8 2165.44 10539.8 2135.34V1822.46C10539.8 1791.83 10535.6 1766.75 10527.1 1747.21C10518.7 1727.14 10508.7 1713.15 10497.1 1705.22V1703.64H10691.8V1705.22ZM10240.5 2174.95C10315.5 2174.95 10353 2140.62 10353 2071.97C10353 2037.65 10343.7 2012.3 10325.3 1995.93C10307.3 1979.03 10279.1 1970.58 10240.5 1970.58H10194.6V2174.95H10240.5Z" fill="white"/>
<path d="M10800.7 2254.16V2252.57C10812.3 2244.65 10822.3 2230.66 10830.8 2210.59C10839.2 2190.52 10843.5 2165.44 10843.5 2135.34V1822.46C10843.5 1759.62 10831.8 1720.54 10808.6 1705.22V1703.64H11297.9V1705.22C11274.2 1720.54 11262.3 1759.62 11262.3 1822.46V2135.34C11262.3 2165.44 11266.5 2190.52 11275 2210.59C11283.4 2230.66 11293.2 2244.65 11304.2 2252.57V2254.16H11110.3V2252.57C11121.9 2244.65 11131.9 2230.66 11140.4 2210.59C11149.3 2190.52 11153.8 2165.44 11153.8 2135.34V1782.85H10951.9V2135.34C10951.9 2165.97 10956.1 2191.32 10964.6 2211.38C10973 2230.92 10983.1 2244.65 10994.7 2252.57V2254.16H10800.7Z" fill="white"/>
<path d="M11709.5 1703.64H11882.9V1705.22C11847.6 1732.16 11820.4 1771.23 11801.4 1822.46L11689.7 2122.67C11677.6 2155.41 11671.5 2181.81 11671.5 2201.88C11671.5 2221.42 11677.9 2238.32 11690.5 2252.57V2254.16H11502.1V2252.57C11533.8 2220.89 11559.4 2179.17 11578.9 2127.42L11609 2048.21H11535.4L11431.6 1814.54C11406.8 1759.62 11382.6 1723.18 11358.8 1705.22V1703.64H11544.1V1705.22C11535.1 1721.6 11530.9 1737.97 11531.4 1754.34C11532.5 1770.71 11538 1790.77 11548 1814.54L11627.2 1999.89L11697.7 1814.54C11713.5 1772.82 11717.5 1735.85 11709.5 1703.64Z" fill="white"/>
<path d="M12175.4 2266.04C12091.5 2266.04 12024 2239.37 11972.8 2186.04C11922.1 2132.7 11896.8 2064.84 11896.8 1982.46C11896.8 1893.75 11923.7 1823.25 11977.5 1770.97C12031.4 1718.69 12103.7 1692.55 12194.5 1692.55C12242.5 1692.55 12288.9 1699.15 12333.8 1712.35L12346.5 1849.39L12344.9 1850.18C12329 1825.89 12307.7 1807.41 12280.7 1794.73C12254.4 1782.06 12225.3 1775.72 12193.7 1775.72C12138.2 1775.72 12094.4 1793.68 12062.2 1829.59C12030.6 1864.97 12014.7 1913.29 12014.7 1974.54C12014.7 2036.86 12029.2 2087.02 12058.3 2125.04C12087.8 2163.06 12129.5 2182.08 12183.4 2182.08C12224 2182.08 12258.3 2174.68 12286.3 2159.9C12314.3 2144.58 12339.3 2122.4 12361.5 2093.36L12363.1 2094.15L12344.1 2235.94C12287.1 2256.01 12230.9 2266.04 12175.4 2266.04Z" fill="white"/>
<path d="M12596 2136.13C12596 2166.23 12599.7 2191.32 12607.1 2211.38C12615 2230.92 12624.3 2244.65 12634.8 2252.57V2254.16H12444.8V2252.57C12456.4 2244.65 12466.5 2230.66 12474.9 2210.59C12483.3 2190.52 12487.6 2165.44 12487.6 2135.34V1819.29C12487.6 1790.24 12483.3 1765.95 12474.9 1746.41C12466.5 1726.35 12456.4 1712.62 12444.8 1705.22V1703.64H12634.8V1705.22C12624.3 1713.15 12615 1727.14 12607.1 1747.21C12599.7 1767.27 12596 1792.36 12596 1822.46V2136.13ZM12874.7 2164.65C12888.5 2184.72 12901.6 2200.56 12914.3 2212.18C12927.5 2223.27 12943.6 2232.77 12962.6 2240.69V2242.28L12803.5 2269.21C12798.2 2249.67 12785.3 2224.59 12764.7 2193.96L12604.7 1956.32L12738.6 1767.01C12757 1740.61 12765.7 1719.48 12764.7 1703.64H12929.4V1705.22C12899.3 1719.48 12868.1 1748.79 12835.9 1793.15L12724.3 1944.44L12874.7 2164.65Z" fill="white"/>
<path d="M13511.8 1705.22C13500.2 1713.15 13490.2 1727.14 13481.7 1747.21C13473.3 1767.27 13469.1 1792.36 13469.1 1822.46V2138.51C13469.1 2167.55 13473.3 2192.11 13481.7 2212.18C13490.2 2231.71 13500.2 2245.18 13511.8 2252.57V2254.16H13320.2V2252.57C13330.8 2244.65 13340 2230.92 13347.9 2211.38C13356.4 2191.32 13360.6 2167.03 13360.6 2138.51V1999.89H13150V2135.34C13150 2165.44 13154 2190.52 13161.9 2210.59C13169.8 2230.66 13179.3 2244.65 13190.4 2252.57V2254.16H12998.8V2252.57C13010.4 2244.65 13020.4 2230.66 13028.9 2210.59C13037.3 2190.52 13041.5 2165.44 13041.5 2135.34V1822.46C13041.5 1791.83 13037.3 1766.75 13028.9 1747.21C13020.4 1727.14 13010.4 1713.15 12998.8 1705.22V1703.64H13190.4V1705.22C13179.8 1713.15 13170.3 1727.4 13161.9 1748C13154 1768.07 13150 1792.89 13150 1822.46V1920.68H13360.6V1822.46C13360.6 1792.36 13356.6 1767.27 13348.7 1747.21C13340.8 1727.14 13331.3 1713.15 13320.2 1705.22V1703.64H13511.8V1705.22Z" fill="white"/>
<path d="M13890.8 2270C13804.2 2270 13735.6 2243.33 13684.9 2190C13634.2 2136.13 13608.9 2067.48 13608.9 1984.05C13608.9 1894.28 13635 1822.46 13687.3 1768.59C13740.1 1714.73 13811.9 1687.8 13902.6 1687.8C13987.1 1687.8 14055.2 1714.2 14106.9 1767.01C14159.2 1819.29 14185.3 1887.94 14185.3 1972.96C14185.3 2061.67 14158.1 2133.49 14103.7 2188.41C14049.9 2242.8 13978.9 2270 13890.8 2270ZM13898.7 2187.62C13948.3 2187.62 13988.7 2168.87 14019.8 2131.38C14051.5 2093.36 14067.3 2043.19 14067.3 1980.88C14067.3 1914.34 14052 1862.59 14021.4 1825.63C13990.8 1788.66 13948.6 1770.18 13894.7 1770.18C13843 1770.18 13802.1 1788.92 13772 1826.42C13741.9 1863.91 13726.9 1913.81 13726.9 1976.13C13726.9 2042.14 13741.7 2093.89 13771.2 2131.38C13800.8 2168.87 13843.3 2187.62 13898.7 2187.62Z" fill="white"/>
<path d="M14551.4 1666.41C14513.4 1666.41 14482 1656.38 14457.2 1636.31C14432.9 1615.72 14417.6 1588.26 14411.3 1553.93L14492 1527L14492.8 1528.58C14488.6 1544.95 14491.8 1560.8 14502.3 1576.11C14512.9 1591.43 14529.2 1599.08 14551.4 1599.08C14574.1 1599.08 14590.7 1591.69 14601.3 1576.9C14612.4 1561.59 14615.8 1545.48 14611.6 1528.58L14612.4 1527L14691.5 1553.14C14683.1 1587.99 14666.7 1615.72 14642.4 1636.31C14618.2 1656.38 14587.8 1666.41 14551.4 1666.41ZM14285.4 2254.16V2252.57C14295.9 2244.65 14305.2 2230.66 14313.1 2210.59C14321.5 2190 14325.8 2164.91 14325.8 2135.34V1822.46C14325.8 1791.83 14321.5 1766.75 14313.1 1747.21C14304.6 1727.14 14294.6 1713.15 14283 1705.22V1703.64H14476.2V1705.22C14465.6 1713.15 14456.1 1727.4 14447.7 1748C14439.2 1768.07 14435 1792.89 14435 1822.46V1961.87C14435 2008.34 14429.2 2063.79 14417.6 2128.21H14420.8C14438.2 2078.57 14463.8 2025.5 14497.6 1969L14611.6 1779.68C14631.6 1746.41 14642.4 1721.07 14644 1703.64H14819V1705.22C14809 1710.51 14798.7 1724.76 14788.1 1748C14777.6 1771.23 14772.3 1794.73 14772.3 1818.5V2135.34C14772.3 2165.97 14776.5 2191.32 14785 2211.38C14793.4 2230.92 14803.4 2244.65 14815 2252.57V2254.16H14620.3V2252.57C14631.9 2244.65 14641.9 2230.66 14650.4 2210.59C14658.8 2190.52 14663 2165.44 14663 2135.34V1992.76C14663 1939.95 14670.4 1881.34 14685.2 1816.91H14682C14660.9 1877.11 14634.3 1933.35 14602.1 1985.63L14482.5 2178.91C14465.6 2206.37 14452.4 2231.45 14442.9 2254.16H14285.4Z" fill="white"/>
</svg>
